# File created by Blade
# Date/Time:  Tue Apr 07 21:36:59 2015
# Frame Rate: 120.000 fps
#------------------------------------------------------
:FULLY-SPECIFIED
:DEGREES
436
root 8.753294 32.442898 9.496351 187.596704 -91.727458 -151.719069
Spine 1.057764 -5.734837 -1.106645
Head -22.795472 -2.939393 5.697602
LeftShoulder 2.714787 18.791762 33.072306
LeftArm 95.046476 -5.853184 -75.630469
LeftForeArm -5.905494 -0.000000 37.122933
LeftHand 16.101723 -0.000000 13.558457
LeftHandThumb1 -26.253704 0.000000 33.147579
RightShoulder 8.512002 28.486105 -27.916196
RightArm 43.886594 -1.451121 83.095193
RightForeArm 11.838752 -0.000000 45.396349
RightHand 13.576074 0.000000 -9.767297
RightHandThumb1 -24.326973 -0.000000 -32.862282
LeftUpLeg -49.083447 -4.448517 4.041835
LeftLeg 8.148384 -0.000000 -0.000000
LeftFoot -2.526542 9.897531 -19.978957
LeftToeBase -1.459429 -0.000000 0.000000
RightUpLeg -50.544308 3.436648 -4.018646
RightLeg 7.841728 -0.000000 -0.000000
RightFoot -5.377420 -9.299680 12.138470
RightToeBase -10.778741 -0.000000 0.000000
437
root 8.775671 32.429201 9.485917 186.042194 -91.667028 -149.954330
Spine 1.267921 -5.698211 -1.246356
Head -23.055724 -2.865715 5.831809
LeftShoulder 2.792011 18.963820 32.892352
LeftArm 93.800780 -5.111626 -74.520569
LeftForeArm -4.630550 0.000000 36.426977
LeftHand 15.520782 -0.000000 13.067037
LeftHandThumb1 -26.253704 0.000000 33.147579
RightShoulder 8.600967 27.866906 -27.586002
RightArm 43.236492 -2.234334 83.246806
RightForeArm 9.290549 -0.000000 44.757753
RightHand 13.172019 0.000000 -8.697925
RightHandThumb1 -24.326973 -0.000000 -32.862282
LeftUpLeg -49.424249 -4.268285 3.917620
LeftLeg 8.364872 -0.000000 -0.000000
LeftFoot -2.575449 9.779177 -20.002279
LeftToeBase -1.561054 -0.000000 0.000000
RightUpLeg -51.017741 3.508037 -4.081786
RightLeg 8.273142 -0.000000 -0.000000
RightFoot -5.548257 -9.373777 12.026760
RightToeBase -10.588575 -0.000000 0.000000
438
root 8.795589 32.416917 9.481171 184.942010 -91.702888 -148.461412
Spine 1.238246 -5.830090 -1.294609
Head -23.232479 -2.768025 5.863402
LeftShoulder 2.817550 19.332436 32.591679
LeftArm 92.393998 -4.428680 -72.954225
LeftForeArm -3.564499 -0.000000 35.886020
LeftHand 14.540339 -0.000000 11.858892
LeftHandThumb1 -26.253704 0.000000 33.147579
RightShoulder 8.731786 27.175021 -27.225703
RightArm 42.573163 -3.232948 83.277449
RightForeArm 6.849355 -0.000000 43.856145
RightHand 13.047420 -0.000000 -8.021579
RightHandThumb1 -24.326973 -0.000000 -32.862282
LeftUpLeg -49.968892 -4.167931 3.809081
LeftLeg 8.609478 -0.000000 -0.000000
LeftFoot -2.602711 9.624175 -20.026196
LeftToeBase -1.611432 -0.000000 0.000000
RightUpLeg -51.671046 3.388177 -4.067851
RightLeg 8.741941 -0.000000 -0.000000
RightFoot -5.694744 -9.293498 11.939908
RightToeBase -10.474767 -0.000000 0.000000
439
root 8.809937 32.404954 9.474040 184.052803 -91.698818 -147.210507
Spine 1.268326 -5.840712 -1.377813
Head -23.484945 -2.710622 5.985441
LeftShoulder 2.842063 19.715751 32.272805
LeftArm 91.166643 -3.521075 -71.675788
LeftForeArm -1.999004 0.000000 34.906877
LeftHand 13.895212 -0.000000 10.566566
LeftHandThumb1 -26.253704 0.000000 33.147579
RightShoulder 8.815102 26.300170 -26.726347
RightArm 41.817200 -4.289903 82.995084
RightForeArm 4.020401 -0.000000 43.150682
RightHand 12.594285 0.000000 -7.873976
RightHandThumb1 -24.326973 -0.000000 -32.862282
LeftUpLeg -50.482877 -4.012857 3.680532
LeftLeg 8.895433 -0.000000 -0.000000
LeftFoot -2.707414 9.422604 -20.071717
LeftToeBase -1.453136 -0.000000 0.000000
RightUpLeg -52.260295 3.405221 -4.137849
RightLeg 9.137217 -0.000000 -0.000000
RightFoot -5.832498 -9.378713 11.842117
RightToeBase -10.310688 -0.000000 0.000000
440
root 8.822074 32.392499 9.466926 182.677212 -91.710106 -145.537625
Spine 1.387440 -5.896822 -1.480739
Head -23.747757 -2.593899 6.075284
LeftShoulder 2.866236 20.162492 31.895623
LeftArm 89.869946 -2.636034 -70.231733
LeftForeArm -0.365083 -0.000000 33.821539
LeftHand 13.466945 -0.000000 9.547729
LeftHandThumb1 -26.253704 0.000000 33.147579
RightShoulder 8.910558 25.337191 -26.178712
RightArm 40.986441 -5.437960 82.573253
RightForeArm 1.792004 -0.000000 42.467901
RightHand 12.175443 0.000000 -6.356287
RightHandThumb1 -24.326973 -0.000000 -32.862282
LeftUpLeg -50.925302 -3.936501 3.593590
LeftLeg 9.164416 -0.000000 -0.000000
LeftFoot -2.811327 9.317661 -20.136058
LeftToeBase -1.500157 -0.000000 0.000000
RightUpLeg -52.801164 3.391787 -4.194968
RightLeg 9.580046 -0.000000 -0.000000
RightFoot -5.958547 -9.429821 11.694849
RightToeBase -10.233703 -0.000000 0.000000
441
root 8.827833 32.379421 9.460275 181.057556 -91.724655 -143.611538
Spine 1.501364 -5.923455 -1.594322
Head -24.010638 -2.516364 6.186370
LeftShoulder 2.861251 20.883973 31.437037
LeftArm 88.708991 -1.729353 -68.573560
LeftForeArm 1.115603 -0.000000 32.732088
LeftHand 12.684101 -0.000000 8.160861
LeftHandThumb1 -26.253704 0.000000 33.147579
RightShoulder 8.962394 24.283538 -25.607770
RightArm 40.038233 -6.769320 81.895130
RightForeArm -0.311824 -0.000000 41.823681
RightHand 11.519187 -0.000000 -5.651535
RightHandThumb1 -24.326973 -0.000000 -32.862282
LeftUpLeg -51.393226 -3.836291 3.470818
LeftLeg 9.487569 -0.000000 -0.000000
LeftFoot -2.901003 9.168866 -20.114059
LeftToeBase -1.519199 -0.000000 0.000000
RightUpLeg -53.338611 3.389988 -4.280591
RightLeg 10.018243 -0.000000 -0.000000
RightFoot -6.086336 -9.492713 11.560830
RightToeBase -10.238953 -0.000000 0.000000
442
root 8.828870 32.366859 9.453969 178.785024 -91.770095 -141.026114
Spine 1.629802 -5.966901 -1.728950
Head -24.350756 -2.458752 6.287936
LeftShoulder 2.834532 21.587084 30.902233
LeftArm 87.417305 -0.773307 -66.791150
LeftForeArm 2.631769 -0.000000 31.592352
LeftHand 11.939545 -0.000000 6.944105
LeftHandThumb1 -26.253704 0.000000 33.147579
RightShoulder 8.947341 23.321464 -24.996344
RightArm 38.881698 -8.231206 81.165145
RightForeArm -2.294744 -0.000000 41.023276
RightHand 10.952610 0.000000 -5.156028
RightHandThumb1 -24.326973 -0.000000 -32.862282
LeftUpLeg -51.850893 -3.819810 3.383174
LeftLeg 9.779282 -0.000000 -0.000000
LeftFoot -3.027650 9.075627 -20.204886
LeftToeBase -1.507959 -0.000000 0.000000
RightUpLeg -53.891294 3.387451 -4.412988
RightLeg 10.501201 -0.000000 -0.000000
RightFoot -6.284442 -9.576945 11.434250
RightToeBase -9.851454 -0.000000 0.000000
443
root 8.826728 32.355481 9.441182 179.422821 -91.799103 -141.337046
Spine 1.772760 -6.015321 -1.768083
Head -24.751799 -2.360544 6.368952
LeftShoulder 2.721889 22.374151 30.287448
LeftArm 86.187115 0.295342 -65.225060
LeftForeArm 4.526534 -0.000000 30.278491
LeftHand 10.872458 0.000000 5.966760
LeftHandThumb1 -26.253704 0.000000 33.147579
RightShoulder 8.829193 22.064087 -24.391419
RightArm 37.977580 -9.759423 80.347186
RightForeArm -3.917469 -0.000000 39.990046
RightHand 10.656181 -0.000000 -4.740657
RightHandThumb1 -24.326973 -0.000000 -32.862282
LeftUpLeg -52.347474 -3.743185 3.365571
LeftLeg 10.125755 -0.000000 -0.000000
LeftFoot -3.151761 8.902398 -20.293916
LeftToeBase -1.517204 -0.000000 0.000000
RightUpLeg -54.434790 3.442897 -4.496816
RightLeg 10.950042 -0.000000 -0.000000
RightFoot -6.499835 -9.648144 11.348266
RightToeBase -9.774391 -0.000000 0.000000
444
root 8.821734 32.343194 9.435413 179.804302 -91.879568 -141.344425
Spine 1.876848 -6.096065 -1.774978
Head -25.188077 -2.283343 6.395285
LeftShoulder 2.596961 23.225225 29.595891
LeftArm 84.795250 1.391198 -63.629009
LeftForeArm 5.895599 -0.000000 29.074006
LeftHand 9.967792 -0.000000 4.573790
LeftHandThumb1 -26.253704 0.000000 33.147579
RightShoulder 8.681259 20.860003 -23.836448
RightArm 36.859163 -11.259784 79.588395
RightForeArm -5.251289 -0.000000 38.916085
RightHand 10.240633 -0.000000 -4.182605
RightHandThumb1 -24.326973 -0.000000 -32.862282
LeftUpLeg -52.911483 -3.791455 3.402747
LeftLeg 10.503675 -0.000000 -0.000000
LeftFoot -3.320719 8.833870 -20.428582
LeftToeBase -1.457723 -0.000000 0.000000
RightUpLeg -55.016006 3.404967 -4.573840
RightLeg 11.412274 -0.000000 -0.000000
RightFoot -6.770134 -9.633859 11.290601
RightToeBase -9.719841 -0.000000 0.000000
